<svg xmlns="http://www.w3.org/2000/svg" xmlns:xlink="http://www.w3.org/1999/xlink" width="300" height="300" viewBox="0 0 300 300">
  <defs>
    <clipPath id="clip-Contact_9">
      <rect width="300" height="300"/>
    </clipPath>
  </defs>
  <g id="Contact_9" data-name="Contact – 9" clip-path="url(#clip-Contact_9)">
    <path id="IconDisaster" d="M5.556,125.155a58.786,58.786,0,0,0,12.162,36.486,60.817,60.817,0,0,0,31.449,21.99l-7.985,20.639c-.369,1.72.246,2.7,1.72,2.7H69.069L56.292,253.409h3.44L108.5,189.282a1.487,1.487,0,0,0,.246-1.72c-.246-.614-.86-.86-1.72-.86H80.248l30.466-57c.737-1.72.246-2.58-1.72-2.58H72.877a3.079,3.079,0,0,0-2.7,1.72L56.784,164.1a39.742,39.742,0,0,1-21.744-14.25,38.508,38.508,0,0,1-8.6-24.693A37.943,37.943,0,0,1,36.76,98.619,40.308,40.308,0,0,1,62.558,85.6l6.388-.86c1.6,0,2.457-.737,2.457-2.088l.86-6.388A49.665,49.665,0,0,1,88.97,42.846a52.113,52.113,0,0,1,70.024,0,50.772,50.772,0,0,1,17.2,33.415l.737,7.125c0,1.474.737,2.211,2.334,2.211h19.779a39.132,39.132,0,0,1,28.5,11.671,39.166,39.166,0,0,1,.86,55.159,40.3,40.3,0,0,1-26.9,12.653c-1.6,0-2.457.737-2.457,2.334v16.83c0,1.351.86,2.088,2.457,2.088a58.779,58.779,0,0,0,22.85-5.405,60.264,60.264,0,0,0,18.673-13.145A61.257,61.257,0,0,0,255.43,148.5a59.675,59.675,0,0,0,4.668-23.1,58.9,58.9,0,0,0-8.231-30.589A60.922,60.922,0,0,0,229.632,72.7a59.859,59.859,0,0,0-30.466-8.108h-3.931a70.992,70.992,0,0,0-25.921-40.049A71.635,71.635,0,0,0,124.1,8.94,72.178,72.178,0,0,0,77.914,25.033a71.528,71.528,0,0,0-25.8,41.277A59.206,59.206,0,0,0,18.578,87.563,58.1,58.1,0,0,0,5.556,125.155ZM105.8,246.284a9.98,9.98,0,0,0,1.843,5.651,10.1,10.1,0,0,0,5.651,3.931,30.154,30.154,0,0,0,3.071.614,13.032,13.032,0,0,0,4.668-1.228,9.2,9.2,0,0,0,5.16-6.388l3.44-12.9a9.537,9.537,0,0,0-.983-7.739,10.657,10.657,0,0,0-6.511-4.914,9.537,9.537,0,0,0-7.739.983,10.835,10.835,0,0,0-5.037,6.511l-3.317,12.285C105.923,245.178,105.8,246.284,105.8,246.284Zm16.462-58.6a9.848,9.848,0,0,0,1.843,5.405,10.578,10.578,0,0,0,5.528,4.054,9.739,9.739,0,0,0,7.862-.614,10.081,10.081,0,0,0,4.914-6.388l3.685-12.776a10.043,10.043,0,0,0-.983-7.739,11.2,11.2,0,0,0-6.511-5.037,10.115,10.115,0,0,0-7.985.983,10.5,10.5,0,0,0-5.037,6.388l-2.948,12.408Q122.262,187.5,122.262,187.685Zm34.643,20.27a11.366,11.366,0,0,0,1.966,6.265,10.8,10.8,0,0,0,5.774,4.3c.246,0,.737.123,1.474.246a9.072,9.072,0,0,0,1.474.246,10.3,10.3,0,0,0,4.668-.983c2.334-.86,4.054-3.194,5.037-7l3.071-12.408a10.349,10.349,0,0,0-.737-8.108,10.222,10.222,0,0,0-6.142-5.16,11.382,11.382,0,0,0-8.354.983,9.259,9.259,0,0,0-4.545,6.511L157.274,205.5A7.922,7.922,0,0,0,156.906,207.955Zm16.707-58.844a8.957,8.957,0,0,0,1.843,5.774,13.928,13.928,0,0,0,6.02,4.668,6.8,6.8,0,0,0,3.194.737,10.856,10.856,0,0,0,4.177-.983c2.58-1.228,4.3-3.563,5.405-7l3.563-12.653c.246-1.6.369-2.457.369-2.7a10.341,10.341,0,0,0-1.966-6.02,10.212,10.212,0,0,0-6.02-4.054,10.95,10.95,0,0,1-1.351-.246,3.165,3.165,0,0,0-1.6-.369,11.13,11.13,0,0,0-6.02,1.843,9.56,9.56,0,0,0-4.054,5.9l-3.317,12.408A22.058,22.058,0,0,0,173.613,149.11Z" transform="translate(17.291 17.29)"/>
  </g>
</svg>
