<svg xmlns="http://www.w3.org/2000/svg" width="27.845" height="31.525" viewBox="0 0 27.845 31.525">
  <g id="Icon_Homme_Femme" data-name="Icon Homme Femme" transform="translate(-198.094 -279.239)">
    <g id="Icon_Homme" data-name="Icon Homme" transform="translate(186 277)">
      <path id="Path_2" data-name="Path 2" d="M18,7.5a2.623,2.623,0,1,0-2.623-2.623A2.614,2.614,0,0,0,18,7.5Z"/>
      <path id="Path_3" data-name="Path 3" d="M20.63,8.086H15.37a3.366,3.366,0,0,0-3.277,3.4v7.988a1.092,1.092,0,1,0,2.18,0V12.094H14.7V32.175a1.513,1.513,0,1,0,3.023,0V20.6h.563v11.58a1.513,1.513,0,1,0,3.023-.007V12.094h.352v7.383a1.126,1.126,0,1,0,2.25,0V11.489A3.375,3.375,0,0,0,20.63,8.086Z"/>
    </g>
    <g id="Icon_Femme" data-name="Icon Femme" transform="translate(201.184 276.996)">
      <path id="Path_4" data-name="Path 4" d="M13.387,10.448,11.32,17.782c-.443,1.6,1.455,2.229,1.92.724l1.849-6.764h.52L12.431,23.625H15.4v8.93a1.128,1.128,0,1,0,2.25,0v-8.93h.7v8.93a1.1,1.1,0,1,0,2.18,0v-8.93h3.052L20.334,11.742h.591l1.849,6.764c.457,1.54,2.341.879,1.92-.717l-2.067-7.341a3.493,3.493,0,0,0-2.953-2.363H16.348A3.357,3.357,0,0,0,13.387,10.448Z"/>
      <path id="Path_5" data-name="Path 5" d="M20.573,4.866A2.574,2.574,0,1,0,18,7.488,2.6,2.6,0,0,0,20.573,4.866Z"/>
    </g>
  </g>
</svg>
