<svg xmlns="http://www.w3.org/2000/svg" xmlns:xlink="http://www.w3.org/1999/xlink" width="300" height="300" viewBox="0 0 300 300">
  <defs>
    <clipPath id="clip-Contact_9">
      <rect width="300" height="300"/>
    </clipPath>
  </defs>
  <g id="Contact_9" data-name="Contact – 9" clip-path="url(#clip-Contact_9)">
    <path id="IconFinancial" d="M122.39,58.241c24.528,0,33.622,11.713,34.449,28.937h30.453c-.965-23.7-15.433-45.473-44.233-52.5V4.5H101.721V34.264a81.684,81.684,0,0,0-20.394,7.441l20.256,20.256A54.034,54.034,0,0,1,122.39,58.241ZM23.59,19.106l-17.5,17.5,47.4,47.4c0,28.662,21.5,44.233,53.878,53.878l48.367,48.367c-4.685,6.614-14.469,12.539-33.347,12.539-28.386,0-39.548-12.677-41.063-28.937H51.012c1.654,30.177,24.252,47.126,50.709,52.776v29.9H143.06V222.907c13.228-2.48,25.079-7.579,33.76-15.433l30.591,30.591,17.5-17.5Z" transform="translate(34.078 21.73)" fill="#fff"/>
  </g>
</svg>
