<svg xmlns="http://www.w3.org/2000/svg" xmlns:xlink="http://www.w3.org/1999/xlink" width="300" height="300" viewBox="0 0 300 300">
  <defs>
    <clipPath id="clip-Contact_9">
      <rect width="300" height="300"/>
    </clipPath>
  </defs>
  <g id="Contact_9" data-name="Contact – 9" clip-path="url(#clip-Contact_9)">
    <g id="IconHuman" transform="translate(-183.956 -406.961)">
      <g id="Icon_ionic-md-man" data-name="Icon ionic-md-man" transform="translate(214.956 422.65)">
        <path id="Path_2" data-name="Path 2" d="M37.783,47.061A22.405,22.405,0,1,0,15.377,24.655,22.329,22.329,0,0,0,37.783,47.061Z" transform="translate(12.675 -2.25)"/>
        <path id="Path_3" data-name="Path 3" d="M85.017,8.086H40.086c-16.939,0-27.992,14.9-27.992,29.073V105.4a9.329,9.329,0,1,0,18.621,0V42.325h3.6V213.88c0,18.261,25.229,17.66,25.829,0V115.007h4.805V213.94c1.021,18.741,25.829,16.939,25.829-.06V42.325h3V105.4c0,13.215,19.222,13.215,19.222,0V37.159C113.009,23.043,101.9,8.086,85.017,8.086Z" transform="translate(-12.094 41.771)"/>
      </g>
      <g id="Icon_ionic-md-woman" data-name="Icon ionic-md-woman" transform="translate(337.495 422.551)">
        <path id="Path_4" data-name="Path 4" d="M29.482,28.269,11.822,90.92c-3.784,13.7,12.434,19.042,16.4,6.187l15.8-57.786h4.445L21.313,140.837H46.661v76.287c0,13.816,19.222,13.816,19.222,0V140.837H71.89v76.287c0,13.816,18.621,13.816,18.621,0V140.837h26.07L88.829,39.321h5.046l15.8,57.786c3.9,13.155,20,7.509,16.4-6.127l-17.66-62.711c-2.4-7.088-10.932-19.582-25.229-20.183H54.771C39.994,8.687,31.524,21.061,29.482,28.269Z" transform="translate(-11.254 41.831)"/>
        <path id="Path_5" data-name="Path 5" d="M59.4,24.648A22.2,22.2,0,0,0,37.412,2.243,22.2,22.2,0,0,0,15.427,24.648,22.2,22.2,0,0,0,37.412,47.054,22.2,22.2,0,0,0,59.4,24.648Z" transform="translate(20.221 -2.243)"/>
      </g>
    </g>
  </g>
</svg>
