<svg xmlns="http://www.w3.org/2000/svg" xmlns:xlink="http://www.w3.org/1999/xlink" width="300" height="300" viewBox="0 0 300 300">
  <defs>
    <clipPath id="clip-Contact_9">
      <rect width="300" height="300"/>
    </clipPath>
  </defs>
  <g id="Contact_9" data-name="Contact – 9" clip-path="url(#clip-Contact_9)">
    <path id="IconFinancial" d="M136.059,64.557c27.411,0,37.574,13.089,38.5,32.338H208.59c-1.078-26.487-17.247-50.817-49.431-58.671V4.5h-46.2V37.762A91.285,91.285,0,0,0,90.17,46.078l22.637,22.637A60.385,60.385,0,0,1,136.059,64.557ZM25.647,20.823,6.09,40.38,59.063,93.353c0,32.03,24.023,49.431,60.211,60.211l54.051,54.051c-5.236,7.392-16.169,14.013-37.266,14.013-31.722,0-44.2-14.167-45.89-32.338H56.291c1.848,33.724,27.1,52.665,56.669,58.979v33.416h46.2V248.577c14.783-2.772,28.027-8.47,37.728-17.247l34.186,34.186,19.557-19.557Z" transform="translate(21.218 7.154)"/>
  </g>
</svg>
